<svg xmlns="http://www.w3.org/2000/svg" fill="none" viewBox="0 0 24 24">
  <path fill="url(#a)" d="M5 11.7c1.3-.6 1.7-4.6 1.4-6a1.5 1.5 0 0 1 2.8-1.1L5 11.7Z"/>
  <path fill="url(#b)" d="M19 11.7c-1.3-.6-1.7-4.6-1.4-6a1.5 1.5 0 0 0-2.8-1.1l4.2 7.1Z"/>
  <path fill="url(#c)" d="M12 20.4c11.5 0 7-8.6 7-8.6-.5-7.1-4.2-7.5-7-7.5s-6.5.4-7 7.4c0 0-4.5 8.7 7 8.7Z"/>
  <path fill="url(#d)" d="M19 11.7s.2 1.5.2 3.9c0 4.7-7.2 4.7-7.2 4.7 11.4 0 7-8.5 7-8.6Z"/>
  <path fill="url(#e)" d="M5 11.7s-.2 1.5-.2 3.9C5 20 12 20.3 12 20.3c-11.4 0-7-8.5-7-8.6Z"/>
  <path fill="#EFA25F" d="M14.2 20.2c.3-.4.3-1 .4-1 1 0 1.7-1.4 1.7-2.8 0-1.2-1.8-2.5-4.3-2-2.5-.5-4.3.8-4.3 2 0 1.4.6 2.9 1.7 2.9 0 0 0 .5.4 1a18.8 18.8 0 0 0 4.4 0Z"/>
  <path fill="url(#f)" d="M5 11.7s-1.4 2.8-.6 5.2c-.5-2 1.2-2.7 4.7-3.5 3.6-.8 3-5.5-.8-8.4-1.6.8-3 2.7-3.3 6.7Z"/>
  <path fill="url(#g)" d="M14.3 17.7 12 16.3l-2.3 1.4c-.5 1.5.6 2.9 2.3 2.9 1.7 0 2.8-1.4 2.3-3Z"/>
  <path fill="url(#h)" d="M9.8 18.1h-.2v1h.2c.8 0 1.4-.4 1.8-1 .2-.4.6-.4.8 0 .4.6 1 1 1.8 1h.1l.1-1h-.2c-1.3 0-2.2-.8-2.2-1.8 0 1-1 1.8-2.2 1.8Z"/>
  <path fill="url(#i)" d="M13.4 19a1.4 1.4 0 1 1-2.8 0c0-2.3.6-3.2 1.4-3.2.8 0 1.4 1 1.4 3.2Z"/>
  <path fill="url(#j)" d="M13.4 19c0-2.3-.6-3.2-1.4-3.2-.8 0-1.4 1-1.4 3.2v.1c.3 0 .6-.2.7-.3a1 1 0 0 1 1.4 0l.7.3V19Z"/>
  <path fill="url(#k)" d="M11.8 17.4c0-.6 0-1 .2-1 .1 0 .2.4.2 1 0 1.8 0 2.5-.2 2.5-.1 0-.2-.8-.2-2.5Z"/>
  <path fill="url(#l)" d="M12 14.3c-2.5-.4-4.3.8-4.3 2 0 1.3.6 2.6 1.7 2.6C11 18.9 12 18 12 17c0 1 1 1.9 2.6 1.9 1.1 0 1.7-1.3 1.7-2.7 0-1.1-1.8-2.3-4.3-1.9Z"/>
  <path fill="url(#m)" d="M9.4 18.9c1.4 0 2.4-.7 2.6-1.6.2 1 1.2 1.6 2.6 1.6 1.1 0 1.7-1.3 1.7-2.7l-.3-.8c0 1.5-.5 3-1.3 3-1.3 0-2.2-.7-1.8-1.2.5-.4 1.3-1.1.9-1.8l-1 1c0-.7-2.6-1-2.6-1-.4.7.4 1.4.9 1.8.4.5-.5 1.3-1.8 1.2-.8 0-1.4-1.5-1.3-3l-.3.8c0 1.4.6 2.7 1.7 2.7Z"/>
  <path fill="url(#n)" d="M15.8 12c.5 0 1-.5 1-1.1 0-.6-.5-1-1-1-.4 0-.8.4-.8 1s.4 1 .8 1Z"/>
  <path fill="url(#o)" d="M14.8 17a.2.2 0 1 0 0-.3.2.2 0 0 0 0 .3Z"/>
  <path fill="url(#p)" d="M15.3 17.7a.2.2 0 1 0 0-.3.2.2 0 0 0 0 .3Z"/>
  <path fill="url(#q)" d="M15.7 16.6a.2.2 0 1 0 0-.3.2.2 0 0 0 0 .3Z"/>
  <path fill="url(#r)" d="M8.2 12c.4 0 .8-.5.8-1.1 0-.6-.4-1-.8-1-.5 0-1 .4-1 1s.5 1 1 1Z"/>
  <path fill="url(#s)" d="m15.7 10.9.2-.4c0-.2 0-.3-.2-.3s-.3.1-.3.3c0 .2.1.4.3.4Z"/>
  <path fill="url(#t)" d="M8 10.9c.1 0 .3-.2.3-.4s-.2-.3-.3-.3c-.2 0-.3.1-.3.3 0 .2.1.4.3.4Z"/>
  <path fill="url(#u)" d="M9.2 17a.2.2 0 1 0 0-.3.2.2 0 0 0 0 .3Z"/>
  <path fill="url(#v)" d="M8.7 17.8a.2.2 0 1 0 0-.4.2.2 0 0 0 0 .4Z"/>
  <path fill="url(#w)" d="M8.3 16.7a.2.2 0 1 0 0-.4.2.2 0 0 0 0 .4Z"/>
  <path fill="url(#x)" d="M13.7 15c-.3-.4-1-.7-1.7-.7s-1.4.3-1.7.8c-1.5 2.1.5 2.4 1.4 2.4h.6c.9 0 2.9-.3 1.4-2.4Z"/>
  <path fill="url(#y)" d="M10.7 15.3c.5.3 2 .3 2.6 0 .2-.2-.7-.6-1.3-.6-.6 0-1.5.4-1.3.6Z"/>
  <path fill="url(#z)" d="M7 6c-1 1-1.8 2.9-2 5.7v.3c2 1.2 2.4-4.6 2-6Z"/>
  <path fill="url(#A)" d="m6.3 6.8.5-.6v-1c.5-.9 1.7-1.4 1.6-.3l1-.4c-1-1.6-3.5-.2-3.2 1.3l.1 1Z"/>
  <path fill="url(#B)" d="m9.2 4.6.4-.1S8 2 3.7 4.7C.8 6.5 3 12.8 5 11.7c1.3-.6 1.5-4.5 1.4-6C6.4 4 8.2 3 9.2 4.5Z"/>
  <path fill="url(#C)" d="M9.2 4.6h.3c-.6-.8-1.1-1-2-.9C6.6 4 6 5 6 5.7v3.5c-.3 1.3-.6 2.2-1 2.4-.9.4-1.7-.5-2.2-1.4l-.2-.4c.5 1.5 1.4 2.5 2.4 2 1.3-.6 1.5-4.5 1.4-6C6.4 4 8.2 3 9.2 4.5Z" opacity=".5"/>
  <path fill="url(#D)" d="M17 6c1 1 1.8 2.9 2 5.8l.1.2c-2 1.2-2.4-4.6-2-6Z"/>
  <path fill="url(#E)" d="m17.7 6.8-.5-.6v-1c-.5-.9-1.7-1.4-1.6-.3l-1-.4c1-1.6 3.5-.2 3.2 1.3l-.1 1Z"/>
  <path fill="url(#F)" d="m14.8 4.6-.4-.1s1.5-2.5 5.9.2c2.9 1.8.8 8.1-1.3 7-1.3-.6-1.5-4.5-1.4-6 0-1.6-1.8-2.6-2.8-1.1Z"/>
  <path fill="url(#G)" d="M14.8 4.6h-.3c.6-.8 1.1-1 2-.9.8.2 1.4 1.2 1.4 2l.1 3.4c.3 1.3.6 2.2 1 2.4.9.4 1.7-.5 2.2-1.4l.2-.4c-.5 1.5-1.4 2.5-2.4 2-1.3-.6-1.5-4.5-1.4-6 0-1.6-1.8-2.6-2.8-1.1Z" opacity=".5"/>
  <path fill="url(#H)" d="M4.4 17a2 2 0 0 1 .4-1.9c0-2 .2-3.3.2-3.4 0 0-1.4 2.8-.6 5.2Z" opacity=".5"/>
  <defs>
    <linearGradient id="a" x1="6" x2="7.9" y1="3.7" y2="11.2" gradientUnits="userSpaceOnUse">
      <stop stop-color="#512D00"/>
      <stop offset="1" stop-color="#A3541E"/>
    </linearGradient>
    <linearGradient id="b" x1="18" x2="16.1" y1="3.7" y2="11.2" gradientUnits="userSpaceOnUse">
      <stop stop-color="#512D00"/>
      <stop offset="1" stop-color="#A3541E"/>
    </linearGradient>
    <linearGradient id="c" x1="12" x2="12" y1="22.6" y2="1.4" gradientUnits="userSpaceOnUse">
      <stop stop-color="#FBB87A"/>
      <stop offset=".1" stop-color="#FBBA7E"/>
      <stop offset=".2" stop-color="#FCC18B"/>
      <stop offset=".3" stop-color="#FCCCA0"/>
      <stop offset=".4" stop-color="#FDDCBD"/>
      <stop offset=".5" stop-color="#FEF0E2"/>
      <stop offset=".6" stop-color="#fff"/>
      <stop offset=".7" stop-color="#FEF0E1"/>
      <stop offset=".8" stop-color="#FDDFC2"/>
      <stop offset=".9" stop-color="#FCD6AF"/>
      <stop offset="1" stop-color="#FCD2A8"/>
    </linearGradient>
    <linearGradient id="d" x1="15.9" x2="15.9" y1="18.1" y2="-1.6" gradientUnits="userSpaceOnUse">
      <stop stop-color="#FBB87A"/>
      <stop offset=".1" stop-color="#FCC695"/>
      <stop offset=".3" stop-color="#FDDFC2"/>
      <stop offset=".4" stop-color="#FEF0E3"/>
      <stop offset=".6" stop-color="#FFFBF8"/>
      <stop offset=".7" stop-color="#fff"/>
      <stop offset=".7" stop-color="#FFFDFC"/>
      <stop offset=".8" stop-color="#FFF8F2"/>
      <stop offset=".9" stop-color="#FEF0E1"/>
      <stop offset=".9" stop-color="#FDE4CA"/>
      <stop offset="1" stop-color="#FCD4AC"/>
      <stop offset="1" stop-color="#FCD2A8"/>
    </linearGradient>
    <linearGradient id="e" x1="8.1" x2="8.1" y1="18.1" y2="-1.6" gradientUnits="userSpaceOnUse">
      <stop stop-color="#FBB87A"/>
      <stop offset=".1" stop-color="#FCC695"/>
      <stop offset=".3" stop-color="#FDDFC2"/>
      <stop offset=".4" stop-color="#FEF0E3"/>
      <stop offset=".6" stop-color="#FFFBF8"/>
      <stop offset=".7" stop-color="#fff"/>
      <stop offset=".7" stop-color="#FFFDFC"/>
      <stop offset=".8" stop-color="#FFF8F2"/>
      <stop offset=".9" stop-color="#FEF0E1"/>
      <stop offset=".9" stop-color="#FDE4CA"/>
      <stop offset="1" stop-color="#FCD4AC"/>
      <stop offset="1" stop-color="#FCD2A8"/>
    </linearGradient>
    <linearGradient id="g" x1="12" x2="12" y1="17.1" y2="20.4" gradientUnits="userSpaceOnUse">
      <stop stop-color="#FBE07A"/>
      <stop offset="1" stop-color="#fff"/>
    </linearGradient>
    <linearGradient id="h" x1="12" x2="12" y1="18.1" y2="20.8" gradientUnits="userSpaceOnUse">
      <stop stop-color="#FCD2A8"/>
      <stop offset="1" stop-color="#fff"/>
    </linearGradient>
    <linearGradient id="i" x1="12" x2="12.6" y1="18.6" y2="21.9" gradientUnits="userSpaceOnUse">
      <stop stop-color="#F68"/>
      <stop offset="1" stop-color="#FB9C9C"/>
    </linearGradient>
    <linearGradient id="j" x1="12.2" x2="11.5" y1="19.5" y2="16.2" gradientUnits="userSpaceOnUse">
      <stop stop-color="#F68"/>
      <stop offset="1" stop-color="#B30B0B"/>
    </linearGradient>
    <linearGradient id="k" x1="12.3" x2="11.6" y1="19.5" y2="16.2" gradientUnits="userSpaceOnUse">
      <stop stop-color="#F68"/>
      <stop offset="1" stop-color="#B30B0B"/>
    </linearGradient>
    <linearGradient id="l" x1="12" x2="12" y1="23.7" y2="16.1" gradientUnits="userSpaceOnUse">
      <stop stop-color="#FBE07A"/>
      <stop offset="1" stop-color="#fff"/>
    </linearGradient>
    <linearGradient id="m" x1="12" x2="12" y1="21.7" y2="15.4" gradientUnits="userSpaceOnUse">
      <stop stop-color="#FCD2A8"/>
      <stop offset="1" stop-color="#fff"/>
    </linearGradient>
    <linearGradient id="o" x1="14.8" x2="14.8" y1="9.8" y2="17.5" gradientUnits="userSpaceOnUse">
      <stop stop-color="#FBB87A"/>
      <stop offset=".5" stop-color="#fff"/>
      <stop offset="1" stop-color="#FCD2A8"/>
    </linearGradient>
    <linearGradient id="p" x1="15.2" x2="15.3" y1="9.8" y2="17.5" gradientUnits="userSpaceOnUse">
      <stop stop-color="#FBB87A"/>
      <stop offset=".5" stop-color="#fff"/>
      <stop offset="1" stop-color="#FCD2A8"/>
    </linearGradient>
    <linearGradient id="q" x1="15.6" x2="15.7" y1="9.8" y2="17.4" gradientUnits="userSpaceOnUse">
      <stop stop-color="#FBB87A"/>
      <stop offset=".5" stop-color="#fff"/>
      <stop offset="1" stop-color="#FCD2A8"/>
    </linearGradient>
    <linearGradient id="s" x1="15.4" x2="15.9" y1="10" y2="11.1" gradientUnits="userSpaceOnUse">
      <stop stop-color="#A3541E"/>
      <stop offset="1" stop-color="#512D00"/>
    </linearGradient>
    <linearGradient id="t" x1="7.8" x2="8.2" y1="10" y2="11.1" gradientUnits="userSpaceOnUse">
      <stop stop-color="#A3541E"/>
      <stop offset="1" stop-color="#512D00"/>
    </linearGradient>
    <linearGradient id="u" x1="9.2" x2="9.2" y1="9.8" y2="17.5" gradientUnits="userSpaceOnUse">
      <stop stop-color="#FBB87A"/>
      <stop offset=".5" stop-color="#fff"/>
      <stop offset="1" stop-color="#FCD2A8"/>
    </linearGradient>
    <linearGradient id="v" x1="8.8" x2="8.7" y1="9.8" y2="17.5" gradientUnits="userSpaceOnUse">
      <stop stop-color="#FBB87A"/>
      <stop offset=".5" stop-color="#fff"/>
      <stop offset="1" stop-color="#FCD2A8"/>
    </linearGradient>
    <linearGradient id="w" x1="8.4" x2="8.3" y1="9.8" y2="17.5" gradientUnits="userSpaceOnUse">
      <stop stop-color="#FBB87A"/>
      <stop offset=".5" stop-color="#fff"/>
      <stop offset="1" stop-color="#FCD2A8"/>
    </linearGradient>
    <linearGradient id="x" x1="12" x2="11.3" y1="16.3" y2="13.5" gradientUnits="userSpaceOnUse">
      <stop stop-color="#3C2200"/>
      <stop offset="1" stop-color="#512D00"/>
    </linearGradient>
    <linearGradient id="y" x1="11.3" x2="12" y1="13.3" y2="15.3" gradientUnits="userSpaceOnUse">
      <stop stop-color="#643800"/>
      <stop offset="1" stop-color="#512D00"/>
    </linearGradient>
    <linearGradient id="z" x1="4.6" x2="6.4" y1="1.3" y2="11.7" gradientUnits="userSpaceOnUse">
      <stop stop-color="#643800"/>
      <stop offset="1" stop-color="#A3541E"/>
    </linearGradient>
    <linearGradient id="A" x1="7.6" x2="7" y1="4.7" y2="2.8" gradientUnits="userSpaceOnUse">
      <stop stop-color="#512D00"/>
      <stop offset="1" stop-color="#3C2200"/>
    </linearGradient>
    <linearGradient id="B" x1="7.8" x2="3" y1="9" y2="4.8" gradientUnits="userSpaceOnUse">
      <stop stop-color="#E89043"/>
      <stop offset="1" stop-color="#A3541E"/>
    </linearGradient>
    <linearGradient id="C" x1="3.5" x2="5.1" y1=".4" y2="4.8" gradientUnits="userSpaceOnUse">
      <stop stop-color="#FBB87A"/>
      <stop offset="1" stop-color="#A3541E"/>
    </linearGradient>
    <linearGradient id="D" x1="12.4" x2="28.7" y1="14.7" y2="-1.6" gradientUnits="userSpaceOnUse">
      <stop stop-color="#FBB87A"/>
      <stop offset=".7" stop-color="#fff"/>
      <stop offset=".7" stop-color="#FFFDFC"/>
      <stop offset=".8" stop-color="#FFF8F2"/>
      <stop offset=".9" stop-color="#FEF0E1"/>
      <stop offset=".9" stop-color="#FDE4CA"/>
      <stop offset="1" stop-color="#FCD4AC"/>
      <stop offset="1" stop-color="#FCD2A8"/>
    </linearGradient>
    <linearGradient id="E" x1="16.4" x2="17" y1="4.7" y2="2.8" gradientUnits="userSpaceOnUse">
      <stop stop-color="#512D00"/>
      <stop offset="1" stop-color="#3C2200"/>
    </linearGradient>
    <linearGradient id="F" x1="16.2" x2="21" y1="9" y2="4.8" gradientUnits="userSpaceOnUse">
      <stop stop-color="#E89043"/>
      <stop offset="1" stop-color="#A3541E"/>
    </linearGradient>
    <linearGradient id="G" x1="20.5" x2="18.9" y1=".4" y2="4.8" gradientUnits="userSpaceOnUse">
      <stop stop-color="#FBB87A"/>
      <stop offset="1" stop-color="#A3541E"/>
    </linearGradient>
    <linearGradient id="H" x1=".3" x2="3.5" y1="10" y2="13.1" gradientUnits="userSpaceOnUse">
      <stop stop-color="#643800"/>
      <stop offset="1" stop-color="#A3541E"/>
    </linearGradient>
    <radialGradient id="f" cx="0" cy="0" r="1" gradientTransform="rotate(94.5 -1 9) scale(6.50227 4.64578)" gradientUnits="userSpaceOnUse">
      <stop stop-color="#E89043"/>
      <stop offset="0" stop-color="#E38C40"/>
      <stop offset=".3" stop-color="#C77331"/>
      <stop offset=".5" stop-color="#B36227"/>
      <stop offset=".8" stop-color="#A75720"/>
      <stop offset="1" stop-color="#A3541E"/>
    </radialGradient>
    <radialGradient id="n" cx="0" cy="0" r="1" gradientTransform="matrix(0 1.33148 -1.08036 0 577.7 9.9)" gradientUnits="userSpaceOnUse">
      <stop stop-color="#512D00"/>
      <stop offset="1" stop-color="#3C2200"/>
    </radialGradient>
    <radialGradient id="r" cx="0" cy="0" r="1" gradientTransform="matrix(0 1.33148 -1.08036 0 8.7 9.9)" gradientUnits="userSpaceOnUse">
      <stop stop-color="#512D00"/>
      <stop offset="1" stop-color="#3C2200"/>
    </radialGradient>
  </defs>
</svg>
